<svg width="21" height="28" viewBox="0 0 21 28" fill="none" xmlns="http://www.w3.org/2000/svg">
<path d="M0 26.9335V0.535748C0 0.243522 0.254349 0 0.559567 0H10.2757C11.7509 0 13.1244 0.243522 14.3961 0.681861C15.6679 1.1202 16.7361 1.80206 17.6009 2.63004C18.5166 3.45801 19.1779 4.4321 19.6866 5.601C20.1953 6.76991 20.4496 8.03622 20.4496 9.39994C20.4496 10.8124 20.1953 12.0787 19.6866 13.2476C19.1779 14.4165 18.4657 15.3906 17.5501 16.2186C16.6344 17.0465 15.5153 17.6797 14.2435 18.118C12.9718 18.5564 11.5474 18.7999 10.0213 18.7999H7.68133C7.37611 18.7999 7.12176 19.0434 7.12176 19.3356V26.8848C7.12176 27.177 6.86741 27.4206 6.56219 27.4206H0.559567C0.254349 27.4693 0 27.2257 0 26.9335ZM7.17263 6.18545V12.7118C7.17263 13.0041 7.42698 13.2476 7.7322 13.2476H8.64785C10.1739 13.2476 11.3439 12.9067 12.1579 12.2735C12.9718 11.5916 13.3787 10.6663 13.3787 9.39994C13.3787 6.86731 11.8526 5.601 8.74959 5.601H7.78307C7.42698 5.64971 7.17263 5.89323 7.17263 6.18545Z" fill="#22425A"/>
</svg>
